<svg width="100" height="100" viewBox="0 0 100 100" fill="none" xmlns="http://www.w3.org/2000/svg">
<path d="M68.8551 39.5818C69.4449 44.8574 71.6438 69.7715 73.9031 74.6376C74.773 76.5113 75.2596 76.6427 72.7288 76.2937C60.92 74.6649 46.8134 73.945 34.726 73.945C33.491 74.0711 30.1414 74.8496 28.9784 73.945C27.1235 73.2559 27.6846 69.9648 27.6783 69.1274C27.5717 54.8416 25.315 40.2523 27.6783 26.0724M54.0905 23.8414C44.903 23.8414 34.1742 22.541 25.3953 25.4673M35.9328 33.3287C36.8017 33.3287 42.5142 33.1676 42.0964 33.9197C41.4752 35.038 43.1661 44.6427 42.1809 44.6427C41.5699 44.6427 35.2813 44.009 35.0978 43.3669C34.2638 40.4478 34.9196 37.8226 34.9196 34.8485M35.4274 51.7355C35.319 52.5485 34.8975 62.6005 35.934 62.5429C37.9918 62.4286 39.9455 62.5429 41.9287 62.5429C42.1212 62.5429 42.5038 62.6144 42.6699 62.5148C43.6622 61.9194 43.2836 52.5093 42.8481 50.985C42.5969 50.1056 36.284 50.3846 35.5962 50.3846M52.5159 73.711C51.9542 66.5407 51.7527 59.2933 51.5965 52.1108C51.5737 51.0617 51.3042 50.1175 52.5159 49.9155C54.598 49.5685 57.0296 49.5403 59.1111 49.5403C60.3254 49.5403 60.1249 50.0023 60.2931 51.0788C61.3841 58.0609 61.8974 66.0743 61.8974 73.1816M53.9412 24.0249C54.2931 25.4211 54.7046 26.8855 52.8442 27.0055C52.3596 27.0368 52.1228 27.1713 51.7328 27.4313C51.3062 27.7157 51.392 28.4575 51.6318 28.7953C52.3365 29.7884 53.3241 30.4728 54.2732 31.1986C54.6686 31.5009 51.302 33.166 51.8627 34.2875C52.1898 34.9416 52.7566 35.3498 53.2195 35.8969C53.5656 36.3059 53.1277 36.7765 52.9741 37.2464C52.6128 38.3523 52.3733 39.5878 53.1762 40.5663C54.3109 41.9492 54.9063 40.3496 55.2114 39.2239C55.5014 38.1542 55.3967 37.454 56.3806 38.1919C57.7256 39.2006 59.1316 40.1298 60.451 41.1725C61.9878 42.3871 63.2998 43.8089 64.5935 45.2718C65.5975 46.407 65.8535 47.882 66.5854 49.2267C66.8586 49.7286 67.1542 50.2143 67.5525 50.6268C67.6901 50.7693 67.8268 50.8659 67.8412 51.0742C67.8911 51.7988 68.0308 52.3689 68.368 53.0012C68.4591 53.172 69.064 54.0332 69.0103 54.0332" stroke="#3F96FC" stroke-width="3" stroke-linecap="round"/>
</svg>
