<svg width="100" height="100" viewBox="0 0 100 100" fill="none" xmlns="http://www.w3.org/2000/svg">
<path d="M37.9586 42.213C41.7141 43.5265 44.0635 43.9794 50.6707 43.5834C57.2921 43.1866 63.3104 46.1682 67.3529 39.7084C71.3954 33.2485 77.0258 35.2502 79.611 38.4933C86.4113 47.0241 72.8192 49.784 75.8775 49.9671C82.8213 50.383 84.9886 60.6064 78.6838 64.1483C71.8241 66.7838 67.9574 59.0185 65.1664 55.8719C60.5138 50.6265 41.8512 53.7672 36.444 54.1518M31.2139 38.6925C26.3136 32.8566 21.0157 35.6207 18.9059 39.1914C13.3561 48.5839 27.1997 49.4296 24.1965 50.0357C17.3778 51.4117 16.6512 61.8371 23.3867 64.4691C30.546 66.1265 33.2968 57.8995 35.6239 54.3958" stroke="white" stroke-width="3" stroke-linecap="round"/>
</svg>
