<svg width="100" height="100" viewBox="0 0 100 100" fill="none" xmlns="http://www.w3.org/2000/svg">
<path d="M58.2663 25.9826C71.5078 29.0617 78.3457 37.8289 78.3457 51.8546C78.3457 62.8203 69.8187 71.7516 59.3516 73.8877C52.3915 75.3081 40.4693 75.4171 34.2795 71.4378C26.4306 66.3922 19.807 55.9644 22.1225 45.7765C25.1368 32.5132 37.3185 24.5032 48.7149 25.2629M39.7344 44.257C39.3403 45.0452 39.9457 44.0473 39.7343 44.8928M60.8711 44.257C60.8805 44.3345 60.8873 44.3928 60.8919 44.4358M60.8919 44.4358C60.9214 44.7067 60.8696 44.3727 60.8919 44.4358ZM60.8919 44.4358C60.9 44.4586 60.9178 44.5335 60.9528 44.7081M38.0782 56.4132C40.126 62.9706 57.9168 63.8837 62.3907 57.173" stroke="#F8DB46" stroke-width="3" stroke-linecap="round"/>
</svg>
