<svg width="100" height="100" viewBox="0 0 100 100" fill="none" xmlns="http://www.w3.org/2000/svg">
<path d="M50.7359 24.4276C39 31.4744 28 38.4743 18.5 49.4744C19.5 50.3496 22.0374 53.9465 24.5 54.4744C30.5 50.4744 49.4534 35.6966 50.0222 36.692C54 37.9744 67.587 51.3005 76 55.9744C77.5823 56.8534 79.5 53.8496 81.5 50.4744C61.5 31.3491 55.5 26.9744 51.2117 23.4761M71.2193 52.6184C71.5 66.4744 72 68.9744 72.3125 76.493C65.7254 76.6759 40 75.9744 27.1197 76.493C25.6639 69.7599 27.3769 61.6346 27.3769 54.7888M64.7404 32.9749C64.7403 30.9749 64.7409 28.4749 64.7402 26.5092C67.501 26.5092 72.001 25.507 74.692 25.4749V38.4384M46.4746 68.8243L46.5756 68.7814C52.114 66.4257 61.5067 62.4307 61.5067 55.2793C60.999 51.9744 58.7121 51.511 56.9248 51.2038C52.9285 50.5169 49.2238 53.623 49.2238 57.5382M46.5 68.9744C44.1603 67.8045 41.5288 64.701 40 62.4744C38.7822 60.7011 38.2618 57.7324 38.4995 55.4743C40.5 48.9744 46.4997 54.4743 48.4997 56.9743" stroke="#FF3D9A" stroke-width="3" stroke-linecap="round" stroke-linejoin="round"/>
</svg>
