<svg width="100" height="100" viewBox="0 0 100 100" fill="none" xmlns="http://www.w3.org/2000/svg">
<path d="M31.0806 37.0521C41.965 36.3555 52.8717 36.8891 63.7623 36.8891C65.8155 36.8891 67.9325 36.7333 69.9456 37.043C75.5279 37.9019 77.1559 47.6128 78.4549 52.484C78.9359 57.294 78.2499 62.0538 77.1609 64.9176C76.239 67.3418 73.3768 70.8563 71.5751 72.658C70.0436 74.1895 69.8662 74.532 67.5103 74.532C64.5769 74.532 30.1628 76.0398 30.0938 74.8669C26.0265 71.7239 23.382 66.1386 22.2174 62.1039C20.9725 57.7912 21.2625 53.052 22.2176 48.5948C24.1023 43.345 26.6619 40.7547 30.0938 36.9797M39.0132 50.0789C39.0132 53.0992 38.3008 56.0752 38.0662 59.079C37.9807 60.1735 38.2878 63.4604 38.2878 62.364M48.8433 49.7625C48.7266 53.6111 48.386 57.5502 48.5536 61.4047C48.5612 61.5805 48.6232 61.8127 48.6803 61.9841M59.9241 49.2737C60.0392 53.6141 60.25 57.967 60.25 62.3102M59.1085 34.6073C59.1085 32.6198 60.0736 27.3521 58.8188 26.0973C56.6293 23.9079 40.7128 24.5166 39.6262 26.2241C38.3765 28.1879 38.656 31.5436 39.0649 33.7925" stroke="#937AFF" stroke-width="3" stroke-linecap="round"/>
</svg>
