<svg width="100" height="100" viewBox="0 0 100 100" fill="none" xmlns="http://www.w3.org/2000/svg">
<path d="M62.5949 40.0471C66.0128 40.0471 69.6554 39.6888 73.062 40.0471C75.3257 40.2853 74.2393 55.16 74.2393 57.1897C74.2393 59.158 74.3112 59.199 72.3037 58.7735C68.438 57.954 63.5539 59.0457 59.6183 58.7735C60.0965 63.0741 59.6966 68.0305 60.9267 72.1791C62.0396 75.9325 50.3637 74.0053 48.1045 74.0053C44.9827 74.0053 44.3121 73.1462 41.2027 73.1462V59.5936C36.899 60.0714 32.0087 59.2796 27.8572 60.5088C24.1011 61.6209 25.96 50.3456 25.96 48.088C25.96 44.9684 25.96 44.3403 25.96 41.2332H40.0579C40.0579 37.8177 39.6993 30.3411 40.0579 26.937C40.2962 24.6749 57.1946 25.7603 59.2258 25.7603C61.1954 25.7603 60.9267 26.3314 60.9267 27.983C60.9267 31.079 61.9309 36.1143 61.6585 40.0471" stroke="#41CC4F" stroke-width="3" stroke-linecap="round" stroke-linejoin="round"/>
</svg>
