<svg width="32" height="32" viewBox="0 0 32 32" fill="none" xmlns="http://www.w3.org/2000/svg">
<path d="M19.8488 6.03948C19.9123 5.99692 19.9775 5.95619 20.0447 5.91743C20.901 5.42302 21.8831 5.34953 22.7916 5.47699C23.7059 5.60527 24.6413 5.94825 25.5137 6.4093C27.243 7.32321 28.9339 8.81394 29.9005 10.4882C30.9104 12.2373 30.9677 13.9195 30.3122 15.3759C29.6898 16.7588 28.4969 17.7807 27.2947 18.4748C26.8912 18.7077 26.4563 18.9213 25.9994 19.0965C25.9966 18.2497 25.9049 17.3689 25.7361 16.4783C25.8388 16.4254 25.9417 16.3692 26.0447 16.3097C26.9948 15.7612 27.7045 15.0784 28.0324 14.3499C28.3272 13.6949 28.3825 12.8589 27.7355 11.7382C27.0453 10.5428 25.7381 9.35556 24.3456 8.61961C23.657 8.25572 23.0005 8.03079 22.4442 7.95274C22.1736 7.91477 21.9481 7.91401 21.7625 7.93759C21.1613 7.20922 20.5183 6.56633 19.8488 6.03948Z" fill="white"/>
<path d="M12.1505 6.03925C12.0872 5.99678 12.022 5.95612 11.955 5.91743C11.0986 5.42302 10.1166 5.34953 9.2081 5.47699C8.29374 5.60527 7.35834 5.94825 6.48595 6.4093C4.75666 7.32321 3.06579 8.81394 2.09913 10.4882C1.0893 12.2373 1.03199 13.9195 1.6875 15.3759C2.3099 16.7588 3.50273 17.7807 4.70497 18.4748C5.10826 18.7076 5.54297 18.9211 5.99958 19.0963C6.00239 18.2494 6.09421 17.3686 6.26302 16.478C6.1605 16.4252 6.05776 16.3691 5.95497 16.3097C5.00489 15.7612 4.29514 15.0784 3.96725 14.3499C3.67247 13.6949 3.61717 12.8589 4.26419 11.7382C4.95438 10.5428 6.26151 9.35556 7.65408 8.61961C8.34263 8.25572 8.99913 8.03079 9.55546 7.95274C9.82581 7.91481 10.0511 7.91401 10.2366 7.93752C10.8378 7.20907 11.4809 6.56613 12.1505 6.03925Z" fill="white"/>
<path d="M15.1995 21.4333C15.5995 21.9667 16.3995 21.9667 16.7995 21.4333L17.7995 20.1C18.2939 19.4408 17.8236 18.5 16.9995 18.5H14.9995C14.1755 18.5 13.7051 19.4408 14.1995 20.1L15.1995 21.4333Z" fill="#F5F5F5"/>
<path d="M14 14C14 14.8284 13.3284 15.5 12.5 15.5C11.6716 15.5 11 14.8284 11 14C11 13.1716 11.6716 12.5 12.5 12.5C13.3284 12.5 14 13.1716 14 14Z" fill="white"/>
<path d="M21 14C21 14.8284 20.3284 15.5 19.5 15.5C18.6716 15.5 18 14.8284 18 14C18 13.1716 18.6716 12.5 19.5 12.5C20.3284 12.5 21 13.1716 21 14Z" fill="white"/>
<path fill-rule="evenodd" clip-rule="evenodd" d="M16 3.25C14.4056 3.25 12.9021 3.91221 11.5916 4.893C10.2773 5.87655 9.08854 7.22923 8.0907 8.75104C6.10597 11.778 4.74999 15.6715 4.74999 19.1364C4.74999 22.697 6.18846 25.1839 8.42586 26.7286C10.5923 28.2242 13.3777 28.75 16 28.75C18.6222 28.75 21.4077 28.2242 23.5741 26.7286C25.8115 25.1839 27.25 22.697 27.25 19.1364C27.25 15.6715 25.894 11.778 23.9093 8.75104C22.9114 7.22923 21.7227 5.87655 20.4084 4.893C19.0978 3.91221 17.5943 3.25 16 3.25ZM7.24999 19.1364C7.24999 16.25 8.40873 12.8253 10.1814 10.1219C11.0622 8.7785 12.0627 7.66295 13.0895 6.89457C14.1199 6.12343 15.1091 5.75 16 5.75C16.8909 5.75 17.8801 6.12343 18.9105 6.89457C19.9372 7.66295 20.9378 8.7785 21.8186 10.1219C23.5912 12.8253 24.75 16.25 24.75 19.1364C24.75 21.927 23.6737 23.6219 22.1538 24.6712C20.7908 25.6122 18.9703 26.0996 17 26.22V22.567C17.2256 22.4368 17.4305 22.2589 17.5997 22.0334L18.5997 20.7C19.5886 19.3816 18.6478 17.5 16.9997 17.5H14.9997C13.3516 17.5 12.4109 19.3816 13.3997 20.7L14.3997 22.0334C14.569 22.2591 14.7742 22.4371 15 22.5673V26.22C13.0297 26.0996 11.2091 25.6122 9.8462 24.6712C8.32623 23.6219 7.24999 21.927 7.24999 19.1364ZM16.9997 19.5L15.9997 20.8334L14.9997 19.5H16.9997Z" fill="white"/>
</svg>
