<svg width="32" height="32" viewBox="0 0 32 32" fill="none" xmlns="http://www.w3.org/2000/svg">
<path d="M16.0001 20C18.2092 20 20.0001 18.2091 20.0001 16C20.0001 13.7908 18.2092 12 16.0001 12C13.7909 12 12.0001 13.7908 12.0001 16C12.0001 18.2091 13.7909 20 16.0001 20Z" fill="#1E1F27"/>
<path fill-rule="evenodd" clip-rule="evenodd" d="M8.00008 2.66663C5.05456 2.66663 2.66675 5.05444 2.66675 7.99996V24C2.66675 26.9455 5.05456 29.3333 8.00008 29.3333H24.0001C26.9456 29.3333 29.3334 26.9455 29.3334 24V7.99996C29.3334 5.05444 26.9456 2.66663 24.0001 2.66663H8.00008ZM16.0001 22.6666C19.682 22.6666 22.6667 19.6819 22.6667 16C22.6667 12.3181 19.682 9.33329 16.0001 9.33329C12.3182 9.33329 9.33342 12.3181 9.33342 16C9.33342 19.6819 12.3182 22.6666 16.0001 22.6666ZM24.0001 7.99996C24.0001 8.73634 23.4031 9.33329 22.6667 9.33329C21.9304 9.33329 21.3334 8.73634 21.3334 7.99996C21.3334 7.26358 21.9304 6.66663 22.6667 6.66663C23.4031 6.66663 24.0001 7.26358 24.0001 7.99996Z" fill="#1E1F27"/>
</svg>
