<svg width="24" height="24" viewBox="0 0 24 24" fill="none" xmlns="http://www.w3.org/2000/svg">
<path d="M2.97819 4.78361C3.51148 4.29686 4.22107 4 5 4H19C19.7789 4 20.4885 4.29686 21.0218 4.78361L12 10.7981L2.97819 4.78361Z" fill="#1E1F27"/>
<path d="M2.0325 6.55685C2.01109 6.70146 2 6.84944 2 7V17C2 18.6569 3.34315 20 5 20H19C20.6569 20 22 18.6569 22 17V7C22 6.84944 21.9889 6.70146 21.9675 6.55685L12.5547 12.8321C12.2188 13.056 11.7812 13.056 11.4453 12.8321L2.0325 6.55685Z" fill="#1E1F27"/>
</svg>
