<svg width="32" height="32" viewBox="0 0 32 32" fill="none" xmlns="http://www.w3.org/2000/svg">
<path d="M28.5778 9.82222C28.6568 9.7565 28.7161 9.67014 28.749 9.57273C28.7819 9.47533 28.7871 9.37071 28.7641 9.27051C28.7411 9.17032 28.6907 9.07848 28.6185 9.00522C28.5464 8.93196 28.4554 8.88015 28.3555 8.85555L27.4778 8.63333C27.398 8.61335 27.3236 8.57589 27.26 8.52366C27.1964 8.47143 27.1453 8.40573 27.1102 8.33131C27.0751 8.25689 27.057 8.1756 27.0571 8.09333C27.0573 8.01105 27.0757 7.92984 27.1111 7.85555L27.6 6.86666C27.6462 6.77084 27.6639 6.66377 27.651 6.55818C27.6381 6.45259 27.5952 6.35292 27.5273 6.27101C27.4594 6.1891 27.3695 6.12839 27.2681 6.09611C27.1668 6.06382 27.0583 6.06132 26.9555 6.08889L24.7333 6.71111C24.6505 6.73526 24.5632 6.7398 24.4784 6.72437C24.3935 6.70894 24.3134 6.67397 24.2444 6.62222C23.2828 5.90099 22.1132 5.51111 20.9111 5.51111C19.4377 5.51111 18.0246 6.09642 16.9827 7.13829C15.9409 8.18016 15.3555 9.59324 15.3555 11.0667V11.4667C15.356 11.5349 15.3314 11.6009 15.2863 11.6522C15.2412 11.7034 15.1789 11.7363 15.1111 11.7444C11.9889 12.1111 8.99999 10.5222 5.77777 6.81111C5.70777 6.73391 5.61784 6.67751 5.51787 6.6481C5.41789 6.6187 5.31175 6.61743 5.2111 6.64444C5.12043 6.68612 5.04266 6.75145 4.98596 6.83356C4.92926 6.91568 4.89573 7.01155 4.88888 7.11111C4.44383 8.93927 4.62377 10.8638 5.39999 12.5778C5.42296 12.6232 5.43298 12.6741 5.42897 12.7249C5.42496 12.7757 5.40707 12.8244 5.37725 12.8657C5.34743 12.907 5.30683 12.9393 5.25989 12.959C5.21295 12.9788 5.16148 12.9853 5.1111 12.9778L3.86666 12.7333C3.77828 12.7191 3.68778 12.7265 3.60286 12.7548C3.51794 12.7831 3.44111 12.8315 3.37892 12.8958C3.31673 12.9602 3.27101 13.0387 3.24566 13.1245C3.22031 13.2104 3.21608 13.3011 3.23332 13.3889C3.32926 14.2416 3.61574 15.0618 4.07157 15.7888C4.5274 16.5159 5.1409 17.1311 5.86666 17.5889C5.91362 17.6116 5.95323 17.6471 5.98094 17.6914C6.00866 17.7356 6.02336 17.7867 6.02336 17.8389C6.02336 17.8911 6.00866 17.9422 5.98094 17.9864C5.95323 18.0306 5.91362 18.0661 5.86666 18.0889L5.27777 18.3222C5.20625 18.3509 5.14148 18.3941 5.08757 18.4492C5.03366 18.5042 4.99179 18.5699 4.96463 18.642C4.93746 18.7141 4.92558 18.791 4.92976 18.868C4.93393 18.9449 4.95407 19.0201 4.98888 19.0889C5.31454 19.8015 5.80816 20.4244 6.42743 20.9044C7.0467 21.3843 7.77313 21.7069 8.54444 21.8444C8.59806 21.8639 8.64439 21.8994 8.67713 21.9461C8.70988 21.9928 8.72744 22.0485 8.72744 22.1056C8.72744 22.1626 8.70988 22.2183 8.67713 22.265C8.64439 22.3117 8.59806 22.3472 8.54444 22.3667C7.03373 22.9915 5.41251 23.3051 3.77777 23.2889C3.63043 23.2594 3.47741 23.2897 3.35239 23.373C3.22736 23.4564 3.14057 23.586 3.1111 23.7333C3.08163 23.8807 3.1119 24.0337 3.19525 24.1587C3.2786 24.2837 3.4082 24.3705 3.55555 24.4C6.38615 25.7425 9.46797 26.4732 12.6 26.5444C15.3549 26.5865 18.0609 25.8133 20.3778 24.3222C22.2836 23.05 23.845 21.3261 24.9229 19.3041C26.0008 17.282 26.5617 15.0247 26.5555 12.7333V11.7667C26.5562 11.686 26.5745 11.6064 26.609 11.5335C26.6435 11.4606 26.6936 11.3961 26.7555 11.3444L28.5778 9.82222Z" fill="#1E1F27"/>
</svg>
