<svg width="32" height="32" viewBox="0 0 32 32" fill="none" xmlns="http://www.w3.org/2000/svg">
<path d="M25.3334 6.49996C22.8334 3.99996 19.6667 2.66663 16.0001 2.66663C8.83341 2.66663 2.83341 8.66663 2.83341 15.8333C2.83341 18.1666 3.50008 20.5 4.66675 22.5L2.66675 29.3333L9.66675 27.5C11.6667 28.5 13.8334 29.1666 16.0001 29.1666C23.3334 29.1666 29.1667 23.1666 29.1667 16C29.3334 12.3333 27.8334 8.99996 25.3334 6.49996ZM22.5001 20.6666C22.1667 21.5 20.8334 22.1666 20.3334 22.1666C19.8334 22.3333 18.1667 22.1666 16.3334 21.3333C13.0001 19.8333 10.8334 16.5 10.6667 16.3333C10.5001 16.1666 9.33342 14.5 9.33342 13C9.33342 11.5 10.1667 10.5 10.5001 10.1666C11.1667 9.49996 12.5001 9.66663 12.8334 10.3333C13.0001 11 13.6667 12.6666 13.8334 12.8333C14.0001 13 14.0001 13.6666 13.5001 14C13.3334 14 12.5001 14.6666 12.8334 15.1666C13.0001 15.5 13.6667 16.5 14.6667 17.5C16.0001 18.6666 17.0001 19 17.3334 19.1666C17.6667 19.3333 17.8334 19.3333 18.0001 19C18.1667 18.8333 18.8334 18 19.0001 17.6666C19.1667 17.3333 19.5001 17.3333 19.6667 17.5C19.8334 17.6666 21.6667 18.3333 22.0001 18.5C22.3334 18.8333 22.6667 18.8333 22.6667 19C22.8334 19.1666 22.8334 19.8333 22.5001 20.6666Z" fill="#1E1F27"/>
</svg>
