<svg width="32" height="33" viewBox="0 0 32 33" fill="none" xmlns="http://www.w3.org/2000/svg">
<path d="M19.8489 6.53948C19.9124 6.49692 19.9777 6.45619 20.0448 6.41743C20.9012 5.92302 21.8832 5.84953 22.7917 5.97699C23.706 6.10527 24.6414 6.44825 25.5138 6.9093C27.2431 7.82321 28.934 9.31394 29.9007 10.9882C30.9105 12.7373 30.9678 14.4195 30.3123 15.8759C29.6899 17.2588 28.4971 18.2807 27.2948 18.9748C26.8913 19.2077 26.4564 19.4213 25.9996 19.5965C25.9968 18.7497 25.905 17.8689 25.7362 16.9783C25.8389 16.9254 25.9418 16.8692 26.0448 16.8097C26.9949 16.2612 27.7046 15.5784 28.0325 14.8499C28.3273 14.1949 28.3826 13.3589 27.7356 12.2382C27.0454 11.0428 25.7383 9.85556 24.3457 9.11961C23.6572 8.75572 23.0007 8.53079 22.4443 8.45274C22.1737 8.41477 21.9482 8.41401 21.7626 8.43759C21.1614 7.70922 20.5185 7.06633 19.8489 6.53948Z" fill="#1E1F27"/>
<path d="M12.1507 6.53925C12.0873 6.49678 12.0221 6.45612 11.9551 6.41743C11.0987 5.92302 10.1167 5.84953 9.20823 5.97699C8.29386 6.10527 7.35846 6.44825 6.48608 6.9093C4.75678 7.82321 3.06591 9.31394 2.09925 10.9882C1.08942 12.7373 1.03211 14.4195 1.68763 15.8759C2.31003 17.2588 3.50285 18.2807 4.70509 18.9748C5.10839 19.2076 5.54309 19.4211 5.9997 19.5963C6.00251 18.7494 6.09433 17.8686 6.26314 16.978C6.16063 16.9252 6.05788 16.8691 5.95509 16.8097C5.00501 16.2612 4.29526 15.5784 3.96737 14.8499C3.67259 14.1949 3.61729 13.3589 4.26431 12.2382C4.95451 11.0428 6.26164 9.85556 7.6542 9.11961C8.34275 8.75572 8.99925 8.53079 9.55558 8.45274C9.82593 8.41481 10.0512 8.41401 10.2368 8.43752C10.838 7.70907 11.481 7.06613 12.1507 6.53925Z" fill="#1E1F27"/>
<path d="M15.1996 21.9333C15.5996 22.4667 16.3996 22.4667 16.7996 21.9333L17.7996 20.6C18.2941 19.9408 17.8237 19 16.9996 19H14.9996C14.1756 19 13.7052 19.9408 14.1996 20.6L15.1996 21.9333Z" fill="#F5F5F5"/>
<path d="M14.0001 14.5C14.0001 15.3284 13.3285 16 12.5001 16C11.6717 16 11.0001 15.3284 11.0001 14.5C11.0001 13.6716 11.6717 13 12.5001 13C13.3285 13 14.0001 13.6716 14.0001 14.5Z" fill="#1E1F27"/>
<path d="M21.0001 14.5C21.0001 15.3284 20.3285 16 19.5001 16C18.6717 16 18.0001 15.3284 18.0001 14.5C18.0001 13.6716 18.6717 13 19.5001 13C20.3285 13 21.0001 13.6716 21.0001 14.5Z" fill="#1E1F27"/>
<path fill-rule="evenodd" clip-rule="evenodd" d="M16.0001 3.75C14.4058 3.75 12.9023 4.41221 11.5917 5.393C10.2774 6.37655 9.08867 7.72923 8.09082 9.25104C6.10609 12.278 4.75011 16.1715 4.75011 19.6364C4.75011 23.197 6.18858 25.6839 8.42598 27.2286C10.5924 28.7242 13.3779 29.25 16.0001 29.25C18.6224 29.25 21.4078 28.7242 23.5742 27.2286C25.8116 25.6839 27.2501 23.197 27.2501 19.6364C27.2501 16.1715 25.8941 12.278 23.9094 9.25104C22.9116 7.72923 21.7228 6.37655 20.4085 5.393C19.098 4.41221 17.5945 3.75 16.0001 3.75ZM7.25011 19.6364C7.25011 16.75 8.40885 13.3253 10.1815 10.6219C11.0623 9.2785 12.0629 8.16295 13.0896 7.39457C14.12 6.62343 15.1092 6.25 16.0001 6.25C16.891 6.25 17.8802 6.62343 18.9106 7.39457C19.9373 8.16295 20.9379 9.2785 21.8187 10.6219C23.5914 13.3253 24.7501 16.75 24.7501 19.6364C24.7501 22.427 23.6739 24.1219 22.1539 25.1712C20.791 26.1122 18.9704 26.5996 17.0001 26.72V23.067C17.2257 22.9368 17.4307 22.7589 17.5998 22.5334L18.5998 21.2C19.5887 19.8816 18.6479 18 16.9998 18H14.9998C13.3517 18 12.411 19.8816 13.3998 21.2L14.3998 22.5334C14.5691 22.7591 14.7743 22.9371 15.0001 23.0673V26.72C13.0298 26.5996 11.2093 26.1122 9.84632 25.1712C8.32636 24.1219 7.25011 22.427 7.25011 19.6364ZM16.9998 20L15.9998 21.3334L14.9998 20H16.9998Z" fill="#1E1F27"/>
</svg>
