<svg width="26" height="24" viewBox="0 0 26 24" fill="none" xmlns="http://www.w3.org/2000/svg">
<path d="M6.17254 0.32636C9.07357 -0.399082 10.9784 0.508581 12.1382 1.66837C12.2645 1.7947 12.3813 1.92326 12.4892 2.05201C12.6158 2.20323 12.803 2.29059 13.0002 2.29059C13.1975 2.29059 13.3846 2.20323 13.5113 2.05201C13.6191 1.92325 13.7359 1.79469 13.8623 1.66837C15.0221 0.508544 16.9271 -0.39906 19.8287 0.326351C22.7269 1.05092 24.9142 3.23014 25.6442 5.96803C26.3791 8.72427 25.6193 11.9632 22.8046 14.7779C19.6904 17.8921 17.0321 20.5517 15.3591 22.2258C14.0575 23.5282 11.9499 23.5288 10.6476 22.2268L3.19755 14.7779C0.381762 11.9625 -0.378092 8.72356 0.357079 5.96741C1.08733 3.22969 3.27503 1.05092 6.17254 0.32636Z" fill="white"/>
</svg>
