<svg width="18" height="12" viewBox="0 0 18 12" fill="none" xmlns="http://www.w3.org/2000/svg">
<path d="M11.3014 10.2922C10.9105 10.6827 10.9105 11.3159 11.3014 11.7064C11.6922 12.0969 12.326 12.0969 12.7169 11.7064L17.7068 6.72192C18.0977 6.33139 18.0977 5.69823 17.7068 5.3077L12.7014 0.293735C12.3105 -0.0967898 11.6767 -0.0967898 11.2859 0.293735C10.895 0.684259 10.895 1.31742 11.2859 1.70795L14.5826 5.01481L0.945325 5.01481C0.423236 5.01481 -5.7146e-07 5.46253 -5.23178e-07 6.01481C-4.74896e-07 6.5671 0.423236 7.01481 0.945325 7.01481L14.5826 7.01481L11.3014 10.2922Z" fill="#1E1F27"/>
</svg>
