<svg width="18" height="18" viewBox="0 0 18 18" fill="none" xmlns="http://www.w3.org/2000/svg">
<path fill-rule="evenodd" clip-rule="evenodd" d="M1.48456 1.28993C1.1984 1.57641 0.936016 1.92781 0.766364 2.23381C0.504982 2.69257 0.350503 3.18664 0.251789 3.70194C-0.525969 7.64793 0.461777 11.1779 3.72244 14.4153C5.86183 16.5394 7.48412 17.4123 9.70541 17.731C10.95 17.9095 12.2155 17.9248 13.469 17.9962C14.0245 18.0279 14.6184 17.9096 15.1495 17.7541C15.7463 17.5432 16.2913 17.2012 16.7476 16.7444C18.4175 15.0727 18.4175 12.3623 16.7476 10.6906L16.5988 10.5486C14.9846 9.0787 12.5161 9.06527 10.8868 10.5155L9.6613 11.7238C9.43506 11.9503 9.07884 11.981 8.81727 11.7965C8.27315 11.4128 6.82742 9.99777 6.47451 9.51552C6.28266 9.25337 6.31052 8.89031 6.54011 8.66056C6.92872 8.27989 7.32162 7.90314 7.70607 7.51827C9.4241 5.79836 9.4241 3.00984 7.70607 1.28993C5.98805 -0.429977 3.20259 -0.429977 1.48456 1.28993Z" fill="#1E1F27"/>
</svg>
